<svg aria-hidden="true" style="width:0;height:0;position:absolute;overflow:hidden" xmlns="http://www.w3.org/2000/svg"><defs><symbol id="search" viewBox="0 0 32 32"><path d="m31.008 27.231-7.58-6.447c-.784-.705-1.622-1.029-2.299-.998a11.954 11.954 0 0 0 2.87-7.787c0-6.627-5.373-12-12-12s-12 5.373-12 12 5.373 12 12 12c2.972 0 5.691-1.081 7.787-2.87-.031.677.293 1.515.998 2.299l6.447 7.58c1.104 1.226 2.907 1.33 4.007.23s.997-2.903-.23-4.007zM12 20a8 8 0 1 1 0-16 8 8 0 0 1 0 16z"/></symbol><symbol id="arrow-up" viewBox="0 0 32 32"><path d="m27.414 12.586-10-10a2 2 0 0 0-2.828 0l-10 10a2 2 0 1 0 2.828 2.828L14 8.828V28a2 2 0 1 0 4 0V8.828l6.586 6.586c.39.39.902.586 1.414.586s1.024-.195 1.414-.586a2 2 0 0 0 0-2.828z"/></symbol><symbol id="spinner" viewBox="0 0 32 32"><path d="M12 4a4 4 0 1 1 8 0 4 4 0 0 1-8 0zm8.485 3.515a4 4 0 1 1 8 0 4 4 0 0 1-8 0zM26 16a2 2 0 1 1 3.999-.001A2 2 0 0 1 26 16zm-3.515 8.485a2 2 0 1 1 3.999-.001 2 2 0 0 1-3.999.001zM14 28a2 2 0 1 1 4 0 2 2 0 1 1-4 0zm-8.485-3.515a2 2 0 1 1 4 0 2 2 0 1 1-4 0zm-1-16.97a3 3 0 1 1 6 0 3 3 0 1 1-6 0zM1.75 16a2.25 2.25 0 1 1 4.5 0 2.25 2.25 0 0 1-4.5 0z"/></symbol><symbol id="cog" viewBox="0 0 32 32"><path d="M29.181 19.07c-1.679-2.908-.669-6.634 2.255-8.328l-3.145-5.447a6.022 6.022 0 0 1-3.058.829c-3.361 0-6.085-2.742-6.085-6.125h-6.289a6.023 6.023 0 0 1-.811 3.07C10.369 5.977 6.637 6.966 3.709 5.28L.565 10.727a6.023 6.023 0 0 1 2.246 2.234c1.676 2.903.672 6.623-2.241 8.319l3.145 5.447a6.022 6.022 0 0 1 3.044-.82c3.35 0 6.067 2.725 6.084 6.092h6.289a6.032 6.032 0 0 1 .811-3.038c1.676-2.903 5.399-3.894 8.325-2.219l3.145-5.447a6.032 6.032 0 0 1-2.232-2.226zM16 22.479A6.48 6.48 0 1 1 16 9.52a6.48 6.48 0 0 1 0 12.959z"/></symbol></defs></svg>